<?xml version="1.0" encoding="UTF-8"?>
<svg id="Capa_1" data-name="Capa 1" xmlns="http://www.w3.org/2000/svg" viewBox="0 0 639.73 833.73">
  <defs>
    <style>
      .cls-1 {
        fill: #232321;
      }

      .cls-2 {
        fill: #b7423d;
      }
    </style>
  </defs>
  <path class="cls-1" d="M478.06,236.02l154.08,83.32c1.57.85,2.37,1.39,3.57,1.24l.2,332.29-313.5,180.86L0,652.93l.03-334.35,322.57-167.68.12,164.59-164.72,85.86.42,171.32,164.12,86.55,155.19-81.33.32-341.87Z"/>
  <path class="cls-2" d="M635.72,320.58c-1.2.15-2.01-.39-3.57-1.24l-154.08-83.32-.11-236.02,158.01,93.31-.25,227.27Z"/>
  <polygon class="cls-2" points="318.42 551.94 255.72 520.36 255.91 456.98 318.49 486.45 318.42 551.94"/>
  <polygon class="cls-2" points="384.18 521.94 326.64 552.04 326.44 486.32 383.89 456.63 384.18 521.94"/>
  <polygon class="cls-2" points="322.64 479.47 260.29 450.13 322.39 416.28 379.83 449.52 322.64 479.47"/>
</svg>