<?xml version="1.0" encoding="UTF-8"?>
<svg id="Capa_1" data-name="Capa 1" xmlns="http://www.w3.org/2000/svg" viewBox="0 0 806.05 95.02">
  <defs>
    <style>
      .cls-1 {
        fill: #DBC8B6;
      }
    </style>
  </defs>
  <polygon class="cls-1" points="154.74 92.7 145.01 36.18 125.92 92.65 110.67 92.69 91.71 36.04 81.8 92.67 64.93 92.67 80.59 2.29 97.42 2.33 118.35 65.06 139.46 2.32 156.29 2.33 171.45 92.65 154.74 92.7"/>
  <path class="cls-1" d="M36.66,52.53l21.36,40.15-18.93-.02-20.14-37.88c-.26-.5-1.15-.28-1.63-.14v38.06s-17.3,0-17.3,0l-.02-90.35h20.61c4.67.01,9.07.33,13.61,1.15,12.95,2.02,20.09,13.59,19.49,26.16-.11,5.31-1.5,10.34-4.73,14.53-3.07,3.9-7.08,6.44-12.31,8.37ZM36.88,29.64c.77-5.1-2.63-9.43-7.74-10.07-3.94-.49-7.79-.47-11.83-.44v18.37c6.69-.09,19.14,1.68,19.57-7.86Z"/>
  <path class="cls-1" d="M507.11,80.17c-9.33,9.87-21.63,14.95-35.11,14.85-13.34-.09-25.52-5.18-34.67-14.87-7.42-7.87-11.9-17.6-12.65-28.49-2.03-29.5,20.99-53.61,50.91-51.53,12.12.84,22.97,5.77,31.34,14.43,8.61,8.91,12.99,20.38,13.02,32.79s-4.27,23.77-12.83,32.83ZM472.48,86.1c10.63-.16,20.46-4.3,27.66-11.84,7.1-7.45,10.45-17.26,10.35-27.49-.13-13.98-7.51-26.26-19.66-32.96-10.63-5.87-23.22-6.55-34.26-1.5-13.91,6.35-22.44,19.79-22.58,35.05-.1,10.94,3.95,20.95,11.96,28.44,7.22,6.75,16.28,10.46,26.53,10.3Z"/>
  <path class="cls-1" d="M260.63,60.67c-3.14,14.29-13.61,26.96-28.13,30.18-4.92,1.09-9.64,1.78-14.76,1.78l-32.01.02V2.32s21.81.01,21.81.01c6.24,0,12.12.4,18.27,1.28,16.41,2.31,29.18,13.19,33.89,29.1,2.69,9.08,3,18.53.93,27.96ZM250.96,61.09c2.5-8.53,2.32-17.52-.32-25.83-3.4-10.69-11.61-18.59-22.36-21.55-10.45-2.72-23.1-2.5-33.78-2.36v72.65s12.45.03,12.45.03c6.21.01,12.09-.26,18.2-1.04,12.29-1.57,22.26-9.79,25.81-21.89Z"/>
  <path class="cls-1" d="M666.03,62.96l-38.83-.02-14.11,29.74-10.17-.04L645.54,2.53c.63-.21,2.18-.66,2.53.11l42.01,89.97-9.85.06-14.19-29.72ZM662.04,54.13l-15.29-32.44-15.38,32.45h30.67Z"/>
  <path class="cls-1" d="M326.4,94.98c-13.58.22-21.94-7.94-27.95-19.16l7.7-4.64c3.33,5.86,8.3,12.83,15.2,14.45,5.94,1.4,12.4-.56,16.46-5.07,4.7-5.22,4.95-12.5,1.02-18.16-4.33-6.24-11.56-11.73-17.63-16.35-3.29-2.49-6.31-4.97-9.32-7.76-5.1-4.73-8-11.11-7.7-18.08.34-7.76,4.65-14.47,11.67-17.83,8.55-4.09,18.67-2.78,25.89,3.38,3.15,2.69,5.69,5.7,8.17,9.13l-7.42,5.62c-1.84-2.34-3.52-4.38-5.55-6.4-4.01-4-9.66-5.68-15.2-4.04-3.61,1.07-6.54,3.81-7.63,7.42-2.1,6.99,2.36,13.16,7.7,17.18l10.79,8.13c6.16,4.65,12.27,9.94,15.97,16.72,5,9.18,3.39,20.11-3.91,27.53-4.86,4.95-11,7.79-18.26,7.91Z"/>
  <path class="cls-1" d="M601.25,2.39l9.97-.04-39.2,90c-.64.57-1.43.42-2.28.17L531.05,2.37h9.93s29.91,69.55,29.91,69.55l30.36-69.52Z"/>
  <polygon class="cls-1" points="806.02 83.92 806.05 92.67 762.13 92.66 762.13 2.35 771.28 2.35 771.27 83.89 806.02 83.92"/>
  <polygon class="cls-1" points="414.27 83.91 414.34 92.68 370.47 92.67 370.47 2.34 379.61 2.32 379.62 83.87 414.27 83.91"/>
  <polygon class="cls-1" points="747.82 83.9 747.87 92.68 704 92.67 704.01 2.32 713.09 2.34 713.09 83.9 747.82 83.9"/>
  <polygon class="cls-1" points="287.19 92.62 278.1 92.66 278.1 2.34 287.18 2.32 287.19 92.62"/>
</svg>