<?xml version="1.0" encoding="UTF-8"?>
<svg id="Capa_1" data-name="Capa 1" xmlns="http://www.w3.org/2000/svg" viewBox="0 0 1000 1000">
  <defs>
    <style>
      .cls-1 {
        fill: #232321;
      }

      .cls-2 {
        fill: #b7423d;
      }
    </style>
  </defs>
  <path class="cls-1" d="M661.16,236.02l154.08,83.32c1.57.85,2.37,1.39,3.57,1.24l.2,332.29-313.5,180.86-322.41-180.8.03-334.35,322.57-167.68.12,164.59-164.72,85.86.42,171.32,164.12,86.55,155.19-81.33.32-341.87Z"/>
  <path class="cls-2" d="M818.82,320.58c-1.2.15-2.01-.39-3.57-1.24l-154.08-83.32-.11-236.02,158.01,93.31-.25,227.27Z"/>
  <path class="cls-1" d="M220.79,997.3l-11.22-61.6-21.19,61.34c-6.14.32-11.75.63-17.42-.18l-21.05-61.57-11.2,61.82-19.1-.03,17.49-101.52c6.53-.47,12.48-.33,19.25-.08l23.46,69.75,23.52-69.69c6.73-.38,12.69-.41,19.28,0l16.99,101.57-18.81.19Z"/>
  <path class="cls-1" d="M111.82,996.79c-7.43,1.08-13.83.27-21.19.43l-23.77-43.62-.76,43.36c-6.53.6-12.99.37-19.67.12l.02-101.63c11.33-.1,22.41-.65,33.48.43,15.9.15,26.67,11.82,27.37,27.36.6,13.32-5.95,24.39-19.19,28.81l23.72,44.73ZM84.27,932.72c3.9-2.16,4.2-6.91,3.39-10.78-1.82-8.67-14.38-7.64-21.36-7.04l.06,19.83c5.84.22,12.24,1.12,17.91-2.01Z"/>
  <polygon class="cls-2" points="501.52 551.94 438.82 520.36 439.01 456.98 501.59 486.45 501.52 551.94"/>
  <polygon class="cls-2" points="567.28 521.94 509.74 552.04 509.54 486.32 566.99 456.63 567.28 521.94"/>
  <polygon class="cls-2" points="505.74 479.47 443.39 450.13 505.49 416.28 562.93 449.52 505.74 479.47"/>
  <path class="cls-1" d="M576.37,999.96c-34.53-.97-58.28-32.12-51.09-65.03,5.78-26.47,29.01-43.88,56.03-42.21,27.73,1.72,49.35,23.43,50.37,51.35,1.14,31.13-23.31,56.79-55.3,55.89ZM619.87,955.11c5.26-26.85-13.63-50.31-39.47-51.94-26.31-1.67-47.53,20.5-45.29,47.33,1.8,21.65,19.46,38.24,40.55,39.09,21.06.84,39.95-12.69,44.22-34.47Z"/>
  <path class="cls-1" d="M336.62,970.99c-7.22,16.32-21.39,25.76-38.72,25.92l-42.32.4-.16-101.9c13.9-.19,26.98-.43,40.54.64,19.3,1.51,35.55,12.29,42,30.76,4.99,14.28,4.94,29.98-1.34,44.17ZM329.41,959.34c1.89-8.46,1.74-16.5-.29-24.39-9.02-30.8-36.43-29.48-63.53-29.24l-.02,81.34c26.48.24,54.99,3.97,63.85-27.71Z"/>
  <path class="cls-1" d="M796.04,964.24l-43.61-.44-15.78,33.09c-3.8.67-7.48.67-11.81,0l46.92-99.56c.67-1.42,1.29-1.96,2.42-1.97s1.75.55,2.42,1.97l46.28,99.5c-4.32.82-7.68.61-11.39.13l-15.44-32.72ZM790.87,953.29l-16.79-35.51-16.78,35.85,33.57-.33Z"/>
  <path class="cls-1" d="M431.37,993.72c-12.69,9.83-30.31,7.74-40.89-3.62-3.34-3.59-5.87-7.14-8.08-11.71,2.61-2.34,5.5-4.14,8.87-5.21,6.46,11.52,16.51,21,29.9,14.27,4.56-2.29,7.7-6.27,8.78-10.17,5.16-18.48-23.17-30.11-34.98-43.75-8.2-9.47-8.85-23.79-.08-33.06,9.32-9.85,24.75-10.24,35.23-2.11,4.11,3.19,7.35,6.77,9.98,11.25-2.68,2.56-5.13,4.36-8.24,6.28-4.35-4.75-7.83-10-14.14-11.68-5.99-1.6-12.1.12-15.49,4.4-3.93,4.95-3.34,11.89.49,17.07,6.44,8.71,23.36,16.37,33.42,29.78,9.18,12.23,7.84,28.5-4.79,38.28Z"/>
  <path class="cls-1" d="M722.62,896.22c2.47-2.14,7.89-.71,11.51-.47l-43.62,100.52c-.57,1.31-2.87,1.38-3.44.05l-43.04-100.34c3.91-1.22,7.58-.91,11.44-.22l33.26,77.21,33.9-76.75Z"/>
  <path class="cls-1" d="M887.5,987.18c.89,3.37.73,6.49.09,10.08h-49.22s-.05-101.3-.05-101.3c3.36-1.21,6.98-.89,10.65-.11l.1,91.19,38.43.14Z"/>
  <path class="cls-1" d="M953.03,987.21c.83,3.31.55,6.35.22,10.01l-49.46.03-.05-101.29c3.2-1.22,6.64-.84,10.49-.21l.04,91.22,38.76.24Z"/>
  <path class="cls-1" d="M512.54,987.25c.74,3.4.42,6.31.25,9.94l-49.55.06-.06-101.24c3.3-1.29,6.69-.86,10.51-.34l.07,91.32,38.78.25Z"/>
  <path class="cls-1" d="M369.8,996.69c-3.64,1.15-6.76.75-10.47.19v-101.14c3.65-.72,6.7-.64,10.43-.11l.04,101.07Z"/>
</svg>